<svg width="20" height="20" viewBox="0 0 20 20" fill="none" xmlns="http://www.w3.org/2000/svg">
<path d="M0.192261 10.3125C0.192261 10.7769 0.558415 11.1538 1.00957 11.1538H17.0174L13.5095 14.7649C13.1907 15.093 13.1907 15.6264 13.5095 15.9545C13.8282 16.2827 14.3464 16.2827 14.6651 15.9545L19.569 10.9065C19.6442 10.8291 19.7047 10.7365 19.7455 10.6339C19.7848 10.5312 19.8076 10.4235 19.8076 10.3158C19.8076 10.3142 19.8076 10.3142 19.8076 10.3125C19.8076 10.2031 19.7864 10.0937 19.7439 9.99108C19.703 9.88844 19.6425 9.79589 19.5674 9.71849L14.6635 4.67041C14.3448 4.34229 13.8266 4.34229 13.5078 4.67041C13.1891 4.99854 13.1891 5.53195 13.5078 5.86007L17.0174 9.47113H1.00957C0.558415 9.47113 0.192261 9.84806 0.192261 10.3125Z" fill="white"/>
</svg>
