<svg width="142" height="55" viewBox="0 0 142 55" fill="none" xmlns="http://www.w3.org/2000/svg">
<path d="M23.1207 33.7919V14.6729H19.1191V33.7919C19.1191 35.5704 23.1207 35.5704 23.1207 33.7919Z" fill="white"/>
<path d="M4.00166 33.7919V14.6729H0V33.7919C0 35.5704 4.00166 35.5704 4.00166 33.7919Z" fill="white"/>
<path fill-rule="evenodd" clip-rule="evenodd" d="M19.1191 14.6727C16.1835 24.7375 4.00166 19.7051 4.00166 14.6727V1.33389C4.00166 -0.444619 0 -0.444618 0 1.3339V14.6777C0.423312 17.8526 2.05644 20.3131 4.00166 21.9717C5.91063 23.5993 8.12016 24.4546 9.78185 24.4546V40.9059C9.78185 45.7286 16.8959 49.3538 22.0092 49.3538C26.9001 49.3538 34.2365 45.7286 34.2365 40.9059V34.7828C37.2014 33.8412 39.3497 31.0661 39.3497 27.7893C39.3497 23.7376 36.0651 20.453 32.0133 20.453C27.9615 20.453 24.6769 23.7376 24.6769 27.7893C24.6769 31.2278 27.0424 34.1137 30.2348 34.9087V40.9059C29.0232 43.127 25.301 45.3522 22.0092 45.3522C18.7173 45.3522 14.6533 43.2977 13.7835 40.9059V24.4546C16.0172 24.0358 17.7675 23.0906 19.1191 21.9231C21.8273 19.5835 22.9342 16.3513 23.1207 14.6727V1.33386C23.1207 -0.444619 19.1191 -0.444619 19.1191 1.33386V14.6727ZM31.791 31.124C33.6327 31.124 35.1257 29.631 35.1257 27.7893C35.1257 25.9476 33.6327 24.4546 31.791 24.4546C29.9493 24.4546 28.4563 25.9476 28.4563 27.7893C28.4563 29.631 29.9493 31.124 31.791 31.124Z" fill="#0FBCA7"/>
<path d="M56.1625 20.6907C54.3718 20.6907 52.7904 21.3986 51.752 22.5958C50.8898 21.3507 49.4937 20.6907 47.7557 20.6907C46.3875 20.6907 45.1908 21.1163 44.2733 21.8529C44.0877 21.1747 43.4947 20.6907 42.765 20.6907C41.8189 20.6907 41.1437 21.3998 41.1437 22.3342V33.1098C41.1437 34.0469 41.8482 34.7534 42.765 34.7534C43.6844 34.7534 44.3596 34.0708 44.3596 33.1098V26.4848C44.3596 25.6254 44.6378 24.9207 45.1031 24.4324C45.5677 23.9449 46.2324 23.6585 47.0351 23.6585C47.8099 23.6585 48.4395 23.9373 48.877 24.4189C49.3162 24.9023 49.5772 25.6075 49.5772 26.4848V33.1098C49.5772 34.0443 50.2524 34.7534 51.1985 34.7534C52.0886 34.7534 52.7931 34.0734 52.7931 33.1098V26.3518C52.7931 24.7891 53.9288 23.6585 55.4686 23.6585C56.2586 23.6585 56.8801 23.9319 57.3061 24.4078C57.7345 24.8863 57.984 25.5909 57.984 26.4848V33.1098C57.984 34.0469 58.6884 34.7534 59.6052 34.7534C60.5195 34.7534 61.2265 34.076 61.2265 33.1098V26.0857C61.2265 24.4495 60.7473 23.0976 59.863 22.153C58.9772 21.2068 57.7047 20.6907 56.1625 20.6907Z" fill="white" stroke="white" stroke-width="0.413609"/>
<path d="M73.275 30.8889L73.2748 30.8886L73.2648 30.8961C72.4215 31.533 71.3981 31.8653 70.3203 31.8653C69.1995 31.8653 68.2736 31.5448 67.5853 30.9839C66.9535 30.4691 66.5103 29.7425 66.3034 28.8467H74.4303C74.9646 28.8467 75.4207 28.6877 75.7445 28.3766C76.0693 28.0646 76.2384 27.621 76.2384 27.0968V26.9637C76.2384 23.3363 73.5558 20.6907 69.9467 20.6907C66.0134 20.6907 62.9877 23.7658 62.9877 27.7353C62.9877 31.767 66.0759 34.7534 70.2402 34.7534C71.9109 34.7534 73.4221 34.2612 74.7133 33.3028C74.9779 33.1083 75.1756 32.9159 75.3055 32.6962C75.4379 32.4722 75.4911 32.2347 75.4911 31.9657C75.4911 31.1858 74.8908 30.5882 74.11 30.5882C73.8099 30.5882 73.5284 30.7204 73.275 30.8889ZM69.8666 23.4722C70.8076 23.4722 71.5815 23.782 72.1255 24.3028C72.6258 24.7817 72.9433 25.4501 73.0107 26.2514H66.3686C66.8421 24.5612 68.1635 23.4722 69.8666 23.4722Z" fill="white" stroke="white" stroke-width="0.413609"/>
<path d="M87.9047 46.0463L87.9065 46.0471C89.1162 46.5473 90.0534 47.071 90.688 47.7304C91.3313 48.3988 91.6541 49.1966 91.6541 50.2147C91.6541 51.6112 91.055 52.6794 90.1061 53.3926C89.1634 54.101 87.8872 54.4517 86.5309 54.4517C84.4226 54.4517 82.696 53.5968 81.5237 52.3508C81.2142 52.0708 81.0565 51.7212 81.0565 51.2894C81.0565 50.4996 81.7203 49.8467 82.5329 49.8467C82.8867 49.8467 83.2321 49.977 83.563 50.2763L83.5652 50.2782C84.3811 51.0374 85.3326 51.5932 86.5309 51.5932C87.0871 51.5932 87.5783 51.4767 87.9231 51.259C88.2595 51.0466 88.4582 50.7392 88.4582 50.3221C88.4582 49.9718 88.3058 49.7259 88.014 49.5068C87.7092 49.2778 87.2704 49.0924 86.7246 48.8753L86.7213 48.874L86.7213 48.8739L85.371 48.3099L87.9047 46.0463ZM87.9047 46.0463L86.635 45.5358L86.6343 45.5355M87.9047 46.0463L86.6343 45.5355M86.6343 45.5355C86.0254 45.2933 85.6151 45.0952 85.3562 44.8801M86.6343 45.5355L85.3562 44.8801M85.3562 44.8801C85.1126 44.6777 85.0088 44.4656 85.0088 44.1693M85.3562 44.8801L85.0088 44.1693M85.0088 44.1693C85.0088 43.8112 85.1609 43.56 85.4245 43.3889M85.0088 44.1693L85.4245 43.3889M85.4245 43.3889C85.6991 43.2106 86.1067 43.1132 86.6119 43.1132M85.4245 43.3889L86.6119 43.1132M86.6119 43.1132C87.5596 43.1132 88.4348 43.4702 89.1066 43.9842M86.6119 43.1132L89.1066 43.9842M89.1066 43.9842C89.4626 44.2565 89.7532 44.4298 90.1237 44.4298M89.1066 43.9842L90.1237 44.4298M90.1237 44.4298C90.8882 44.4298 91.519 43.7978 91.519 43.0139M90.1237 44.4298L91.519 43.0139M91.519 43.0139C91.519 42.606 91.3591 42.2292 91.0214 41.9226M91.519 43.0139L91.0214 41.9226M91.0214 41.9226C89.954 40.8902 88.4166 40.2547 86.6659 40.2547C85.3223 40.2547 84.106 40.6057 83.2204 41.2885C82.3293 41.9754 81.7858 42.9895 81.7858 44.2767C81.7858 45.3248 82.1379 46.1163 82.7746 46.7567C83.4021 47.388 84.2981 47.8641 85.3706 48.3097L91.0214 41.9226ZM78.805 40.4159C77.447 40.4159 76.2171 40.9336 75.3076 41.7996C75.2557 40.9176 74.5966 40.2547 73.7265 40.2547C72.7708 40.2547 72.088 40.9693 72.088 41.9123V52.794C72.088 53.7396 72.8004 54.4517 73.7265 54.4517C74.6552 54.4517 75.3379 53.7638 75.3379 52.794V46.9099C75.3379 45.8986 75.6908 45.0598 76.2896 44.4674C76.889 43.8743 77.7482 43.515 78.7831 43.4893L78.7831 43.4895L78.7917 43.4889C79.239 43.4593 79.6323 43.2949 79.9155 43.0171C80.2001 42.7379 80.3624 42.3548 80.3624 41.9123C80.3624 41.0365 79.693 40.4159 78.805 40.4159ZM97.0243 48.4869H105.253C105.794 48.4869 106.255 48.3266 106.582 48.0129C106.91 47.6983 107.081 47.2508 107.081 46.7218V46.5874C107.081 42.925 104.366 40.2547 100.715 40.2547C96.7358 40.2547 93.6739 43.3587 93.6739 47.3666C93.6739 51.4372 96.7989 54.4517 101.012 54.4517C102.703 54.4517 104.232 53.9549 105.538 52.9874C105.806 52.7911 106.006 52.5971 106.137 52.3755C106.271 52.1496 106.325 51.9101 106.325 51.6387C106.325 50.8518 105.718 50.2497 104.929 50.2497C104.626 50.2497 104.342 50.3829 104.086 50.5529L104.085 50.5525L104.075 50.56C103.221 51.2036 102.185 51.5394 101.093 51.5394C99.9582 51.5394 99.0203 51.2155 98.3231 50.6487C97.6826 50.128 97.2336 49.3929 97.0243 48.4869ZM47.9688 40.2547C46.5365 40.2547 45.2768 40.7058 44.3194 41.4933C44.1508 40.7685 43.5483 40.2547 42.7822 40.2547C41.8266 40.2547 41.1438 40.9693 41.1438 41.9123V52.794C41.1438 53.7396 41.8562 54.4517 42.7822 54.4517C43.711 54.4517 44.3937 53.7638 44.3937 52.794V46.0769C44.3937 44.4152 45.5734 43.2207 47.2125 43.2207C48.0255 43.2207 48.6918 43.5101 49.1556 44.0021C49.6203 44.4952 49.8962 45.2074 49.8962 46.0769V52.794C49.8962 53.737 50.579 54.4517 51.5346 54.4517C52.4337 54.4517 53.1461 53.7665 53.1461 52.794V45.7008C53.1461 44.0602 52.6465 42.6957 51.7386 41.7397C50.8296 40.7826 49.5298 40.2547 47.9688 40.2547ZM62.5614 54.4517C64.3 54.4517 65.793 53.8352 66.8516 52.7648C67.9101 51.6945 68.5221 50.1828 68.5221 48.4145V41.9123C68.5221 40.972 67.8418 40.2547 66.9106 40.2547C65.9549 40.2547 65.2721 40.9693 65.2721 41.9123V48.6294C65.2721 50.2682 64.1427 51.4319 62.5614 51.4319C60.9211 51.4319 59.7697 50.2631 59.7697 48.6294V41.9123C59.7697 40.972 59.0895 40.2547 58.1582 40.2547C57.227 40.2547 56.5468 40.972 56.5468 41.9123V48.4145C56.5468 50.1829 57.1588 51.6948 58.2244 52.7653C59.2902 53.8358 60.7967 54.4517 62.5614 54.4517ZM100.634 43.0595C101.587 43.0595 102.371 43.3726 102.922 43.899C103.43 44.3834 103.751 45.0597 103.819 45.8702H97.0902C97.569 44.1613 98.9077 43.0595 100.634 43.0595ZM111.745 54.4517C113.02 54.4517 114.032 53.4466 114.032 52.1761C114.032 50.909 113.023 49.8736 111.745 49.8736C110.445 49.8736 109.404 50.9038 109.404 52.1761C109.404 53.4518 110.449 54.4517 111.745 54.4517Z" fill="#0FBCA7" stroke="#0FBCA7" stroke-width="0.413505"/>
<path d="M127.536 43.1074L127.536 43.1074L127.538 43.1054C127.902 42.7445 128.133 42.3766 128.133 41.9255C128.133 41.0865 127.444 40.447 126.592 40.447C126.162 40.447 125.737 40.629 125.433 40.9309C125.433 40.9309 125.433 40.931 125.433 40.931L120.713 45.5934L120.713 45.5933L120.707 45.5998C120.359 45.9745 120.198 46.3407 120.198 46.7738C120.198 47.1555 120.36 47.5177 120.669 47.9088L120.669 47.9089L120.676 47.9164L125.823 53.8244L125.823 53.8245C126.008 54.0362 126.195 54.1958 126.407 54.301C126.621 54.4071 126.847 54.4517 127.099 54.4517C127.929 54.4517 128.613 53.8068 128.613 52.9468C128.613 52.5502 128.486 52.2099 128.187 51.8821L123.756 46.76L127.536 43.1074ZM118.351 33.5852C117.436 33.5852 116.731 34.2884 116.731 35.2226V52.8143C116.731 53.7485 117.436 54.4517 118.351 54.4517C119.269 54.4517 119.945 53.7724 119.945 52.8143V35.2226C119.945 34.2646 119.269 33.5852 118.351 33.5852ZM139.773 51.3359H134.018L140.493 43.302C140.769 42.9732 140.993 42.6347 140.993 42.1374C140.993 41.3567 140.363 40.7385 139.56 40.7385H131.425C130.619 40.7385 129.992 41.3596 129.992 42.1639C129.992 42.9742 130.625 43.5629 131.425 43.5629H136.54L130.119 51.5172C129.71 52.0044 129.538 52.3166 129.538 52.7613C129.538 53.545 130.198 54.1603 130.972 54.1603H139.773C140.577 54.1603 141.207 53.5421 141.207 52.7613C141.207 51.9275 140.577 51.3359 139.773 51.3359Z" fill="#0FBCA7" stroke="#0FBCA7" stroke-width="0.413505"/>
</svg>
