<svg width="142" height="55" viewBox="0 0 142 55" fill="none" xmlns="http://www.w3.org/2000/svg">
<path d="M23.1207 33.7918V14.6727H19.1191V33.7918C19.1191 35.5703 23.1207 35.5703 23.1207 33.7918Z" fill="#2D3E50"/>
<path d="M4.00166 33.7918V14.6727H0V33.7918C0 35.5703 4.00166 35.5703 4.00166 33.7918Z" fill="#2D3E50"/>
<path fill-rule="evenodd" clip-rule="evenodd" d="M19.1191 14.6727C16.1835 24.7375 4.00166 19.7051 4.00166 14.6727V1.33389C4.00166 -0.444619 0 -0.444618 0 1.3339V14.6777C0.423312 17.8526 2.05644 20.3131 4.00166 21.9717C5.91063 23.5993 8.12016 24.4546 9.78185 24.4546V40.9059C9.78185 45.7286 16.8959 49.3538 22.0092 49.3538C26.9001 49.3538 34.2365 45.7286 34.2365 40.9059V34.7828C37.2014 33.8412 39.3497 31.0661 39.3497 27.7893C39.3497 23.7376 36.0651 20.453 32.0133 20.453C27.9615 20.453 24.6769 23.7376 24.6769 27.7893C24.6769 31.2278 27.0424 34.1138 30.2348 34.9087V40.9059C29.0232 43.127 25.301 45.3522 22.0092 45.3522C18.7173 45.3522 14.6533 43.2977 13.7835 40.9059V24.4546C16.0172 24.0358 17.7675 23.0906 19.1191 21.9231C21.8273 19.5835 22.9342 16.3513 23.1207 14.6727V1.33386C23.1207 -0.444619 19.1191 -0.444619 19.1191 1.33386V14.6727ZM31.791 31.124C33.6327 31.124 35.1257 29.631 35.1257 27.7893C35.1257 25.9476 33.6327 24.4546 31.791 24.4546C29.9493 24.4546 28.4563 25.9476 28.4563 27.7893C28.4563 29.631 29.9493 31.124 31.791 31.124Z" fill="#0FBCA7"/>
<path d="M56.1625 20.6907C54.3718 20.6907 52.7904 21.3987 51.752 22.5959C50.8898 21.3508 49.4937 20.6907 47.7557 20.6907C46.3875 20.6907 45.1908 21.1164 44.2733 21.8529C44.0877 21.1748 43.4947 20.6907 42.765 20.6907C41.8189 20.6907 41.1437 21.3998 41.1437 22.3343V33.1099C41.1437 34.0469 41.8482 34.7534 42.765 34.7534C43.6844 34.7534 44.3596 34.0709 44.3596 33.1099V26.4849C44.3596 25.6255 44.6378 24.9208 45.1031 24.4325C45.5677 23.945 46.2324 23.6585 47.0351 23.6585C47.8099 23.6585 48.4395 23.9374 48.877 24.4189C49.3162 24.9024 49.5772 25.6076 49.5772 26.4849V33.1099C49.5772 34.0443 50.2524 34.7534 51.1985 34.7534C52.0886 34.7534 52.7931 34.0735 52.7931 33.1099V26.3518C52.7931 24.7892 53.9288 23.6585 55.4686 23.6585C56.2586 23.6585 56.8801 23.9319 57.3061 24.4078C57.7345 24.8864 57.984 25.591 57.984 26.4849V33.1099C57.984 34.0469 58.6884 34.7534 59.6052 34.7534C60.5195 34.7534 61.2265 34.0761 61.2265 33.1099V26.0858C61.2265 24.4496 60.7473 23.0976 59.863 22.153C58.9772 21.2068 57.7047 20.6907 56.1625 20.6907Z" fill="#2D3E50" stroke="#2D3E50" stroke-width="0.413609"/>
<path d="M73.275 30.8889L73.2748 30.8886L73.2648 30.8961C72.4215 31.5331 71.3981 31.8654 70.3203 31.8654C69.1995 31.8654 68.2736 31.5448 67.5853 30.984C66.9535 30.4692 66.5103 29.7426 66.3034 28.8468H74.4303C74.9646 28.8468 75.4207 28.6878 75.7445 28.3767C76.0693 28.0646 76.2384 27.621 76.2384 27.0968V26.9638C76.2384 23.3363 73.5558 20.6907 69.9467 20.6907C66.0134 20.6907 62.9877 23.7658 62.9877 27.7354C62.9877 31.7671 66.0759 34.7534 70.2402 34.7534C71.9109 34.7534 73.4221 34.2612 74.7133 33.3028C74.9779 33.1084 75.1756 32.916 75.3055 32.6963C75.4379 32.4723 75.4911 32.2348 75.4911 31.9658C75.4911 31.1858 74.8908 30.5883 74.11 30.5883C73.8099 30.5883 73.5284 30.7205 73.275 30.8889ZM69.8666 23.4723C70.8076 23.4723 71.5815 23.7821 72.1255 24.3029C72.6258 24.7818 72.9433 25.4502 73.0107 26.2515H66.3686C66.8421 24.5613 68.1635 23.4723 69.8666 23.4723Z" fill="#2D3E50" stroke="#2D3E50" stroke-width="0.413609"/>
<path d="M87.9047 46.0461L87.9065 46.0469C89.1162 46.5471 90.0534 47.0708 90.688 47.7302C91.3313 48.3987 91.6541 49.1964 91.6541 50.2145C91.6541 51.611 91.055 52.6792 90.1061 53.3924C89.1634 54.1009 87.8872 54.4515 86.5309 54.4515C84.4226 54.4515 82.696 53.5966 81.5237 52.3506C81.2142 52.0706 81.0565 51.721 81.0565 51.2892C81.0565 50.4994 81.7203 49.8465 82.5329 49.8465C82.8867 49.8465 83.2321 49.9769 83.563 50.2761L83.5652 50.2781C84.3811 51.0372 85.3326 51.593 86.5309 51.593C87.0871 51.593 87.5783 51.4765 87.9231 51.2588C88.2595 51.0464 88.4582 50.739 88.4582 50.322C88.4582 49.9716 88.3058 49.7257 88.014 49.5066C87.7092 49.2776 87.2704 49.0923 86.7246 48.8751L86.7213 48.8738L86.7213 48.8738L85.371 48.3097L87.9047 46.0461ZM87.9047 46.0461L86.635 45.5356L86.6343 45.5353M87.9047 46.0461L86.6343 45.5353M86.6343 45.5353C86.0254 45.2931 85.6151 45.095 85.3562 44.8799M86.6343 45.5353L85.3562 44.8799M105.539 52.9869C104.232 53.9546 102.703 54.4515 101.012 54.4515C96.7989 54.4515 93.6739 51.4371 93.6739 47.3664C93.6739 43.3585 96.7358 40.2545 100.715 40.2545C104.366 40.2545 107.081 42.9248 107.081 46.5872V46.7216C107.081 47.2506 106.91 47.6981 106.582 48.0127C106.255 48.3264 105.794 48.4867 105.253 48.4867H97.0243C97.2336 49.3927 97.6826 50.1278 98.3231 50.6485C99.0203 51.2153 99.9582 51.5392 101.093 51.5392C102.185 51.5392 103.221 51.2034 104.075 50.5599L104.085 50.5524L104.086 50.5527C104.342 50.3827 104.626 50.2495 104.929 50.2495C105.718 50.2495 106.325 50.8516 106.325 51.6385C106.325 51.9099 106.271 52.1495 106.137 52.3753C106.006 52.5968 105.806 52.7907 105.539 52.9869ZM105.539 52.9869C105.538 52.9871 105.538 52.9873 105.538 52.9875L105.415 52.8207L105.539 52.9869ZM85.3562 44.8799C85.1126 44.6775 85.0088 44.4655 85.0088 44.1691M85.3562 44.8799L85.0088 44.1691M85.0088 44.1691C85.0088 43.811 85.1609 43.5598 85.4245 43.3887M85.0088 44.1691L85.4245 43.3887M85.4245 43.3887C85.6991 43.2104 86.1067 43.113 86.6119 43.113M85.4245 43.3887L86.6119 43.113M86.6119 43.113C87.5596 43.113 88.4348 43.47 89.1066 43.984M86.6119 43.113L89.1066 43.984M89.1066 43.984C89.4626 44.2564 89.7532 44.4296 90.1237 44.4296M89.1066 43.984L90.1237 44.4296M90.1237 44.4296C90.8881 44.4296 91.519 43.7977 91.519 43.0137M90.1237 44.4296L91.519 43.0137M91.519 43.0137C91.519 42.6058 91.3591 42.2289 91.0214 41.9224M91.519 43.0137L91.0214 41.9224M91.0214 41.9224C89.9539 40.8899 88.4165 40.2545 86.6659 40.2545C85.3223 40.2545 84.106 40.6056 83.2204 41.2883C82.3293 41.9752 81.7858 42.9893 81.7858 44.2766C81.7858 45.3246 82.1379 46.1161 82.7746 46.7565C83.4021 47.3878 84.2981 47.8639 85.3706 48.3095L91.0214 41.9224ZM78.805 40.4157C77.4471 40.4157 76.2171 40.9334 75.3076 41.7995C75.2557 40.9174 74.5966 40.2545 73.7265 40.2545C72.7708 40.2545 72.088 40.9691 72.088 41.9121V52.7939C72.088 53.7395 72.8004 54.4515 73.7265 54.4515C74.6552 54.4515 75.3379 53.7637 75.3379 52.7939V46.9097C75.3379 45.8984 75.6908 45.0596 76.2896 44.4672C76.889 43.8741 77.7482 43.5149 78.7831 43.4891L78.7831 43.4893L78.7917 43.4887C79.239 43.4591 79.6323 43.2947 79.9155 43.0169C80.2001 42.7378 80.3624 42.3546 80.3624 41.9121C80.3624 41.0363 79.693 40.4157 78.805 40.4157ZM47.9688 40.2545C46.5365 40.2545 45.2768 40.7056 44.3194 41.4932C44.1508 40.7683 43.5483 40.2545 42.7822 40.2545C41.8266 40.2545 41.1438 40.9691 41.1438 41.9121V52.7939C41.1438 53.7395 41.8562 54.4515 42.7822 54.4515C43.711 54.4515 44.3937 53.7637 44.3937 52.7939V46.0767C44.3937 44.415 45.5734 43.2205 47.2125 43.2205C48.0255 43.2205 48.6918 43.5099 49.1556 44.0019C49.6203 44.495 49.8962 45.2072 49.8962 46.0767V52.7939C49.8962 53.7369 50.579 54.4515 51.5346 54.4515C52.4337 54.4515 53.1461 53.7663 53.1461 52.7939V45.7006C53.1461 44.0601 52.6465 42.6955 51.7386 41.7395C50.8296 40.7825 49.5298 40.2545 47.9688 40.2545ZM62.5614 54.4515C64.3 54.4515 65.793 53.835 66.8516 52.7646C67.9101 51.6943 68.5221 50.1827 68.5221 48.4143V41.9121C68.5221 40.9718 67.8418 40.2545 66.9106 40.2545C65.9549 40.2545 65.2721 40.9691 65.2721 41.9121V48.6292C65.2721 50.268 64.1427 51.4318 62.5614 51.4318C60.9211 51.4318 59.7697 50.2629 59.7697 48.6292V41.9121C59.7697 40.9718 59.0895 40.2545 58.1582 40.2545C57.227 40.2545 56.5468 40.9718 56.5468 41.9121V48.4143C56.5468 50.1827 57.1588 51.6947 58.2244 52.7651C59.2902 53.8356 60.7967 54.4515 62.5614 54.4515ZM100.634 43.0593C101.587 43.0593 102.371 43.3724 102.922 43.8988C103.43 44.3832 103.751 45.0595 103.819 45.87H97.0902C97.569 44.1612 98.9077 43.0593 100.634 43.0593ZM111.745 54.4515C113.02 54.4515 114.032 53.4465 114.032 52.1759C114.032 50.9088 113.023 49.8734 111.745 49.8734C110.445 49.8734 109.404 50.9036 109.404 52.1759C109.404 53.4516 110.449 54.4515 111.745 54.4515Z" fill="#0FBCA7" stroke="#0FBCA7" stroke-width="0.413505"/>
<path d="M127.536 43.1072L127.536 43.1072L127.538 43.1052C127.902 42.7443 128.133 42.3764 128.133 41.9253C128.133 41.0863 127.444 40.4469 126.592 40.4469C126.162 40.4469 125.737 40.6288 125.433 40.9307C125.433 40.9307 125.433 40.9308 125.433 40.9308L120.713 45.5933L120.713 45.5931L120.707 45.5996C120.359 45.9743 120.198 46.3405 120.198 46.7736C120.198 47.1554 120.36 47.5176 120.669 47.9086L120.669 47.9088L120.676 47.9162L125.823 53.8242L125.823 53.8243C126.008 54.0361 126.195 54.1956 126.407 54.3008C126.621 54.4069 126.847 54.4515 127.099 54.4515C127.929 54.4515 128.613 53.8066 128.613 52.9466C128.613 52.55 128.486 52.2097 128.187 51.8819L123.756 46.7598L127.536 43.1072ZM118.351 33.5851C117.436 33.5851 116.731 34.2882 116.731 35.2225V52.8141C116.731 53.7483 117.436 54.4515 118.351 54.4515C119.269 54.4515 119.945 53.7722 119.945 52.8141V35.2225C119.945 34.2644 119.269 33.5851 118.351 33.5851ZM139.773 51.3357H134.018L140.493 43.3018C140.769 42.973 140.993 42.6344 140.993 42.1372C140.993 41.3565 140.363 40.7383 139.56 40.7383H131.425C130.619 40.7383 129.992 41.3594 129.992 42.1637C129.992 42.974 130.625 43.5627 131.425 43.5627H136.54L130.119 51.517C129.71 52.0043 129.538 52.3164 129.538 52.7611C129.538 53.5448 130.198 54.1601 130.972 54.1601H139.773C140.577 54.1601 141.207 53.5419 141.207 52.7611C141.207 51.9274 140.577 51.3357 139.773 51.3357Z" fill="#0FBCA7" stroke="#0FBCA7" stroke-width="0.413505"/>
</svg>
